<mxfile host="app.diagrams.net" modified="2022-05-17T05:02:36.752Z" agent="5.0 (Windows NT 10.0; Win64; x64) AppleWebKit/537.36 (KHTML, like Gecko) Chrome/97.0.4692.99 Safari/537.36" etag="w-HlDtMFr43CQaC_gg8X" version="18.0.5" type="github">
  <diagram id="C5RBs43oDa-KdzZeNtuy" name="Page-1">
    <mxGraphModel dx="1093" dy="609" grid="1" gridSize="10" guides="1" tooltips="1" connect="1" arrows="1" fold="1" page="1" pageScale="1" pageWidth="827" pageHeight="1169" background="none" math="1" shadow="0">
      <root>
        <mxCell id="WIyWlLk6GJQsqaUBKTNV-0" />
        <mxCell id="WIyWlLk6GJQsqaUBKTNV-1" parent="WIyWlLk6GJQsqaUBKTNV-0" />
        <mxCell id="DdUxpX9HPgBVx04q5bpO-0" style="edgeStyle=orthogonalEdgeStyle;curved=0;rounded=1;sketch=1;orthogonalLoop=1;jettySize=auto;html=1;entryX=0.5;entryY=0;entryDx=0;entryDy=0;fontColor=#1A1A1A;strokeColor=#182E3E;labelBackgroundColor=#EEEEEE;" edge="1" parent="WIyWlLk6GJQsqaUBKTNV-1" source="DdUxpX9HPgBVx04q5bpO-1" target="DdUxpX9HPgBVx04q5bpO-3">
          <mxGeometry relative="1" as="geometry" />
        </mxCell>
        <mxCell id="DdUxpX9HPgBVx04q5bpO-1" value="开始" style="rounded=1;whiteSpace=wrap;html=1;fontSize=12;glass=0;strokeWidth=1;shadow=0;sketch=1;fillColor=#F5AB50;strokeColor=#909090;fontColor=#1A1A1A;" vertex="1" parent="WIyWlLk6GJQsqaUBKTNV-1">
          <mxGeometry x="175" y="81" width="90" height="40" as="geometry" />
        </mxCell>
        <mxCell id="DdUxpX9HPgBVx04q5bpO-25" style="edgeStyle=orthogonalEdgeStyle;rounded=0;orthogonalLoop=1;jettySize=auto;html=1;entryX=0.5;entryY=0;entryDx=0;entryDy=0;fontSize=13;labelBackgroundColor=#EEEEEE;strokeColor=#182E3E;fontColor=#1A1A1A;sketch=1;" edge="1" parent="WIyWlLk6GJQsqaUBKTNV-1" source="DdUxpX9HPgBVx04q5bpO-3" target="DdUxpX9HPgBVx04q5bpO-5">
          <mxGeometry relative="1" as="geometry" />
        </mxCell>
        <mxCell id="DdUxpX9HPgBVx04q5bpO-3" value="$$聚簇A=\left \{ A_{1},\cdots,A_{m} \right \}&amp;nbsp;$$" style="shape=parallelogram;perimeter=parallelogramPerimeter;whiteSpace=wrap;html=1;fixedSize=1;rounded=0;sketch=1;fontColor=#1A1A1A;strokeColor=#909090;fillColor=#F5AB50;" vertex="1" parent="WIyWlLk6GJQsqaUBKTNV-1">
          <mxGeometry x="127.5" y="168" width="185" height="40" as="geometry" />
        </mxCell>
        <mxCell id="DdUxpX9HPgBVx04q5bpO-26" style="edgeStyle=orthogonalEdgeStyle;rounded=0;orthogonalLoop=1;jettySize=auto;html=1;entryX=0.5;entryY=0;entryDx=0;entryDy=0;fontSize=13;labelBackgroundColor=#EEEEEE;strokeColor=#182E3E;fontColor=#1A1A1A;sketch=1;" edge="1" parent="WIyWlLk6GJQsqaUBKTNV-1" source="DdUxpX9HPgBVx04q5bpO-5" target="DdUxpX9HPgBVx04q5bpO-13">
          <mxGeometry relative="1" as="geometry" />
        </mxCell>
        <mxCell id="DdUxpX9HPgBVx04q5bpO-5" value="$$i=1$$" style="shape=hexagon;perimeter=hexagonPerimeter2;whiteSpace=wrap;html=1;fixedSize=1;rounded=0;sketch=1;fontColor=#1A1A1A;strokeColor=#909090;fillColor=#F5AB50;" vertex="1" parent="WIyWlLk6GJQsqaUBKTNV-1">
          <mxGeometry x="165" y="250" width="110" height="40" as="geometry" />
        </mxCell>
        <mxCell id="DdUxpX9HPgBVx04q5bpO-28" style="edgeStyle=orthogonalEdgeStyle;rounded=0;orthogonalLoop=1;jettySize=auto;html=1;entryX=0.5;entryY=0;entryDx=0;entryDy=0;fontSize=13;labelBackgroundColor=#EEEEEE;strokeColor=#182E3E;fontColor=#1A1A1A;sketch=1;" edge="1" parent="WIyWlLk6GJQsqaUBKTNV-1" source="DdUxpX9HPgBVx04q5bpO-8" target="DdUxpX9HPgBVx04q5bpO-14">
          <mxGeometry relative="1" as="geometry" />
        </mxCell>
        <mxCell id="DdUxpX9HPgBVx04q5bpO-8" value="计算最大值" style="shape=process;whiteSpace=wrap;html=1;backgroundOutline=1;rounded=0;sketch=1;fontColor=#1A1A1A;strokeColor=#909090;fillColor=#F5AB50;" vertex="1" parent="WIyWlLk6GJQsqaUBKTNV-1">
          <mxGeometry x="145" y="429" width="150" height="60" as="geometry" />
        </mxCell>
        <mxCell id="DdUxpX9HPgBVx04q5bpO-32" style="edgeStyle=orthogonalEdgeStyle;rounded=0;orthogonalLoop=1;jettySize=auto;html=1;exitX=0.5;exitY=1;exitDx=0;exitDy=0;entryX=0.5;entryY=0;entryDx=0;entryDy=0;fontSize=13;labelBackgroundColor=#EEEEEE;strokeColor=#182E3E;fontColor=#1A1A1A;sketch=1;" edge="1" parent="WIyWlLk6GJQsqaUBKTNV-1" source="DdUxpX9HPgBVx04q5bpO-11" target="DdUxpX9HPgBVx04q5bpO-18">
          <mxGeometry relative="1" as="geometry" />
        </mxCell>
        <mxCell id="DdUxpX9HPgBVx04q5bpO-33" style="edgeStyle=orthogonalEdgeStyle;rounded=0;orthogonalLoop=1;jettySize=auto;html=1;exitX=1;exitY=0.5;exitDx=0;exitDy=0;entryX=1;entryY=0.5;entryDx=0;entryDy=0;fontSize=13;labelBackgroundColor=#EEEEEE;strokeColor=#182E3E;fontColor=#1A1A1A;sketch=1;" edge="1" parent="WIyWlLk6GJQsqaUBKTNV-1" source="DdUxpX9HPgBVx04q5bpO-11" target="DdUxpX9HPgBVx04q5bpO-15">
          <mxGeometry relative="1" as="geometry">
            <Array as="points">
              <mxPoint x="801" y="287" />
              <mxPoint x="801" y="115" />
            </Array>
          </mxGeometry>
        </mxCell>
        <mxCell id="DdUxpX9HPgBVx04q5bpO-11" value="$$J\left (&amp;nbsp; M_{i}^{k}\right )\le&lt;br&gt;J\left (&amp;nbsp; M_{i}^{k-1}\right )?$$" style="rhombus;whiteSpace=wrap;html=1;rounded=0;fontColor=#1A1A1A;strokeColor=#909090;fillColor=#F5AB50;sketch=1;" vertex="1" parent="WIyWlLk6GJQsqaUBKTNV-1">
          <mxGeometry x="466" y="250" width="210" height="74" as="geometry" />
        </mxCell>
        <mxCell id="DdUxpX9HPgBVx04q5bpO-27" style="edgeStyle=orthogonalEdgeStyle;rounded=0;orthogonalLoop=1;jettySize=auto;html=1;fontSize=13;labelBackgroundColor=#EEEEEE;strokeColor=#182E3E;fontColor=#1A1A1A;sketch=1;" edge="1" parent="WIyWlLk6GJQsqaUBKTNV-1" source="DdUxpX9HPgBVx04q5bpO-13" target="DdUxpX9HPgBVx04q5bpO-8">
          <mxGeometry relative="1" as="geometry" />
        </mxCell>
        <mxCell id="DdUxpX9HPgBVx04q5bpO-13" value="&lt;span style=&quot;color: rgb(26, 26, 26);&quot;&gt;计算簇中基分类器分类结果与标签之间的互信息&lt;/span&gt;" style="rounded=0;whiteSpace=wrap;html=1;fillColor=#F5AB50;strokeColor=#909090;fontColor=#1A1A1A;sketch=1;" vertex="1" parent="WIyWlLk6GJQsqaUBKTNV-1">
          <mxGeometry x="145" y="328" width="150" height="60" as="geometry" />
        </mxCell>
        <mxCell id="DdUxpX9HPgBVx04q5bpO-29" style="edgeStyle=orthogonalEdgeStyle;rounded=0;orthogonalLoop=1;jettySize=auto;html=1;entryX=0;entryY=0.5;entryDx=0;entryDy=0;fontSize=13;labelBackgroundColor=#EEEEEE;strokeColor=#182E3E;fontColor=#1A1A1A;sketch=1;" edge="1" parent="WIyWlLk6GJQsqaUBKTNV-1" source="DdUxpX9HPgBVx04q5bpO-14" target="DdUxpX9HPgBVx04q5bpO-15">
          <mxGeometry relative="1" as="geometry" />
        </mxCell>
        <mxCell id="DdUxpX9HPgBVx04q5bpO-14" value="&lt;font color=&quot;#1a1a1a&quot;&gt;$$M_{i}^{1}=\left \{ c_{m} \right \}&amp;nbsp;&amp;nbsp;&lt;br&gt;$$&lt;/font&gt;" style="rounded=0;whiteSpace=wrap;html=1;fillColor=#F5AB50;strokeColor=#909090;fontColor=#1A1A1A;sketch=1;" vertex="1" parent="WIyWlLk6GJQsqaUBKTNV-1">
          <mxGeometry x="145" y="529" width="150" height="60" as="geometry" />
        </mxCell>
        <mxCell id="DdUxpX9HPgBVx04q5bpO-30" style="edgeStyle=orthogonalEdgeStyle;rounded=0;orthogonalLoop=1;jettySize=auto;html=1;exitX=0.5;exitY=1;exitDx=0;exitDy=0;entryX=0.5;entryY=0;entryDx=0;entryDy=0;fontSize=13;labelBackgroundColor=#EEEEEE;strokeColor=#182E3E;fontColor=#1A1A1A;sketch=1;" edge="1" parent="WIyWlLk6GJQsqaUBKTNV-1" source="DdUxpX9HPgBVx04q5bpO-15" target="DdUxpX9HPgBVx04q5bpO-16">
          <mxGeometry relative="1" as="geometry" />
        </mxCell>
        <mxCell id="DdUxpX9HPgBVx04q5bpO-15" value="$${\small \max_{c_{c}\in A_{i}-M_{i}&amp;nbsp; } {I\left ( c_{c};l \right )-\frac{1}{p_{1}}\sum_{c_{i}\in M_{i}}{I\left ( c_{i};c_{c};l \right ) }+\frac{1}{p_{2}}\sum_{c_{j}\in M_{i}}{\left |I\left ( c_{j};c_{c};l \right )&amp;nbsp; \right | }&amp;nbsp; &amp;nbsp; &amp;nbsp; }}&amp;nbsp;$$" style="shape=process;whiteSpace=wrap;html=1;backgroundOutline=1;rounded=0;sketch=1;fontColor=#1A1A1A;strokeColor=#909090;fillColor=#F5AB50;" vertex="1" parent="WIyWlLk6GJQsqaUBKTNV-1">
          <mxGeometry x="371" y="90" width="400" height="50" as="geometry" />
        </mxCell>
        <mxCell id="DdUxpX9HPgBVx04q5bpO-31" style="edgeStyle=orthogonalEdgeStyle;rounded=0;orthogonalLoop=1;jettySize=auto;html=1;entryX=0.5;entryY=0;entryDx=0;entryDy=0;fontSize=13;labelBackgroundColor=#EEEEEE;strokeColor=#182E3E;fontColor=#1A1A1A;sketch=1;" edge="1" parent="WIyWlLk6GJQsqaUBKTNV-1" source="DdUxpX9HPgBVx04q5bpO-16" target="DdUxpX9HPgBVx04q5bpO-11">
          <mxGeometry relative="1" as="geometry" />
        </mxCell>
        <mxCell id="DdUxpX9HPgBVx04q5bpO-16" value="&lt;font color=&quot;#1a1a1a&quot;&gt;$$M_{i} ^{k}=M_{i}^{k} \cup c_{c}&amp;nbsp;&lt;br&gt;,A_{i}=A_{i}-c_{c}，J\left (&amp;nbsp; M_{i}^{k}\right )&amp;nbsp;&lt;br&gt;$$&lt;/font&gt;" style="rounded=0;whiteSpace=wrap;html=1;fillColor=#F5AB50;strokeColor=#909090;fontColor=#1A1A1A;sketch=1;" vertex="1" parent="WIyWlLk6GJQsqaUBKTNV-1">
          <mxGeometry x="446" y="169" width="250" height="50" as="geometry" />
        </mxCell>
        <mxCell id="DdUxpX9HPgBVx04q5bpO-34" style="edgeStyle=orthogonalEdgeStyle;rounded=0;orthogonalLoop=1;jettySize=auto;html=1;entryX=0.5;entryY=0;entryDx=0;entryDy=0;fontSize=13;labelBackgroundColor=#EEEEEE;strokeColor=#182E3E;fontColor=#1A1A1A;sketch=1;" edge="1" parent="WIyWlLk6GJQsqaUBKTNV-1" source="DdUxpX9HPgBVx04q5bpO-18" target="DdUxpX9HPgBVx04q5bpO-21">
          <mxGeometry relative="1" as="geometry" />
        </mxCell>
        <mxCell id="DdUxpX9HPgBVx04q5bpO-18" value="&lt;font style=&quot;font-size: 13px;&quot; color=&quot;#1a1a1a&quot;&gt;$$退回c_{c}，得M_{i}&amp;nbsp;&lt;br&gt;$$&lt;/font&gt;" style="rounded=0;whiteSpace=wrap;html=1;fillColor=#F5AB50;strokeColor=#909090;fontColor=#1A1A1A;sketch=1;" vertex="1" parent="WIyWlLk6GJQsqaUBKTNV-1">
          <mxGeometry x="496" y="360" width="150" height="50" as="geometry" />
        </mxCell>
        <mxCell id="DdUxpX9HPgBVx04q5bpO-36" style="edgeStyle=orthogonalEdgeStyle;rounded=0;orthogonalLoop=1;jettySize=auto;html=1;fontSize=13;labelBackgroundColor=#EEEEEE;strokeColor=#182E3E;fontColor=#1A1A1A;sketch=1;" edge="1" parent="WIyWlLk6GJQsqaUBKTNV-1" source="DdUxpX9HPgBVx04q5bpO-20" target="DdUxpX9HPgBVx04q5bpO-22">
          <mxGeometry relative="1" as="geometry" />
        </mxCell>
        <mxCell id="DdUxpX9HPgBVx04q5bpO-20" value="$$M=\left \{ M_{1},\cdots,M_{m} \right \}&amp;nbsp;$$" style="shape=parallelogram;perimeter=parallelogramPerimeter;whiteSpace=wrap;html=1;fixedSize=1;rounded=0;sketch=1;fontColor=#1A1A1A;strokeColor=#909090;fillColor=#F5AB50;" vertex="1" parent="WIyWlLk6GJQsqaUBKTNV-1">
          <mxGeometry x="696" y="450" width="185" height="40" as="geometry" />
        </mxCell>
        <mxCell id="DdUxpX9HPgBVx04q5bpO-37" style="edgeStyle=orthogonalEdgeStyle;rounded=0;orthogonalLoop=1;jettySize=auto;html=1;entryX=0;entryY=0.5;entryDx=0;entryDy=0;fontSize=13;labelBackgroundColor=#EEEEEE;strokeColor=#182E3E;fontColor=#1A1A1A;sketch=1;" edge="1" parent="WIyWlLk6GJQsqaUBKTNV-1" source="DdUxpX9HPgBVx04q5bpO-21" target="DdUxpX9HPgBVx04q5bpO-13">
          <mxGeometry relative="1" as="geometry">
            <Array as="points">
              <mxPoint x="570" y="610" />
              <mxPoint x="125" y="610" />
              <mxPoint x="125" y="358" />
            </Array>
          </mxGeometry>
        </mxCell>
        <mxCell id="DdUxpX9HPgBVx04q5bpO-39" style="edgeStyle=orthogonalEdgeStyle;rounded=0;orthogonalLoop=1;jettySize=auto;html=1;entryX=0;entryY=0.5;entryDx=0;entryDy=0;fontSize=13;labelBackgroundColor=#EEEEEE;strokeColor=#182E3E;fontColor=#1A1A1A;sketch=1;" edge="1" parent="WIyWlLk6GJQsqaUBKTNV-1" source="DdUxpX9HPgBVx04q5bpO-21" target="DdUxpX9HPgBVx04q5bpO-20">
          <mxGeometry relative="1" as="geometry" />
        </mxCell>
        <mxCell id="DdUxpX9HPgBVx04q5bpO-21" value="$$i=m?$$" style="rhombus;whiteSpace=wrap;html=1;rounded=0;fontColor=#1A1A1A;strokeColor=#909090;fillColor=#F5AB50;sketch=1;" vertex="1" parent="WIyWlLk6GJQsqaUBKTNV-1">
          <mxGeometry x="483.75" y="440" width="174.5" height="60" as="geometry" />
        </mxCell>
        <mxCell id="DdUxpX9HPgBVx04q5bpO-22" value="结束" style="rounded=1;whiteSpace=wrap;html=1;fontSize=12;glass=0;strokeWidth=1;shadow=0;sketch=1;fillColor=#F5AB50;strokeColor=#909090;fontColor=#1A1A1A;" vertex="1" parent="WIyWlLk6GJQsqaUBKTNV-1">
          <mxGeometry x="743.5" y="520" width="90" height="40" as="geometry" />
        </mxCell>
      </root>
    </mxGraphModel>
  </diagram>
</mxfile>
